<svg width="243" height="244" viewBox="0 0 243 244" fill="none" xmlns="http://www.w3.org/2000/svg">
<path d="M30.5435 205.607C30.7415 205.981 31.3354 205.632 31.1044 205.275C30.8154 204.826 30.5274 204.369 30.2384 203.921C30.0484 203.63 29.5954 203.888 29.7684 204.195C30.0234 204.668 30.2795 205.141 30.5435 205.607ZM30.1555 206.653C29.2485 205.623 28.0605 204.933 26.7155 204.692C26.4025 204.634 26.2615 205.107 26.5835 205.174C27.8295 205.457 28.9094 206.088 29.7594 207.052C29.9994 207.326 30.3955 206.928 30.1555 206.653ZM161.89 87.6251C162.476 86.8361 163.21 86.3451 164.01 85.8141C164.299 85.6231 164.126 85.0831 163.763 85.2161C162.757 85.5811 161.923 86.4291 161.338 87.3011C161.098 87.6501 161.651 87.9581 161.89 87.6251ZM163.837 87.2021C164.175 86.8951 163.689 86.4291 163.342 86.7031C162.459 87.4091 161.709 88.3071 161.057 89.2291C160.818 89.5701 161.362 89.8771 161.601 89.5531C162.261 88.6721 163.028 87.9331 163.837 87.2021ZM81.7775 131.661C81.9915 131.462 81.6705 131.138 81.4555 131.337C80.3665 132.367 79.2774 133.398 78.1974 134.419C78.0244 134.577 78.2805 134.826 78.4445 134.677C78.8985 134.262 79.3515 133.854 79.8055 133.447C79.7805 133.58 79.8885 133.73 80.0535 133.688C81.2495 133.356 82.3544 132.6 83.2294 131.736C83.5104 131.453 83.0894 131.046 82.7924 131.304C81.9514 132.027 81.0525 132.592 80.1115 133.165C80.6635 132.666 81.2245 132.159 81.7775 131.661ZM209.659 8.83509C208.727 8.31209 207.795 7.78009 206.854 7.26509C206.582 7.11509 206.351 7.52209 206.607 7.68909C207.506 8.27909 208.413 8.85209 209.321 9.43409C209.692 9.66609 210.047 9.05209 209.659 8.83509ZM210.047 7.45609C210.426 7.75509 210.954 7.25709 210.591 6.90809C209.626 5.98609 208.389 5.07209 207.118 4.64809C206.78 4.53209 206.648 4.99709 206.895 5.18809C207.39 5.56209 207.951 5.85309 208.462 6.21809C209.007 6.60009 209.527 7.03309 210.047 7.45609ZM205.939 1.15009C205.98 1.10809 205.997 1.05909 206.03 1.01709C211.994 6.31009 218.56 10.9211 224.615 16.1301C230.348 21.0651 237.153 26.1671 240.535 33.1211C240.552 33.1631 240.584 33.1791 240.601 33.2121C239.941 33.6941 239.314 34.2421 238.729 34.7911C238.696 34.8161 238.655 34.8331 238.622 34.8661C236.956 36.6191 235.273 38.3641 233.599 40.1091C232.898 39.4861 231.908 38.8961 231.034 38.7131C230.663 38.6381 230.44 39.1201 230.77 39.3361C231.166 39.5941 231.603 39.7851 231.991 40.0511C232.329 40.2751 232.626 40.5411 232.931 40.8071C231.182 42.6271 229.442 44.4461 227.693 46.2571C227.71 46.1321 227.66 46.0001 227.545 45.9251C227.496 45.8921 227.438 45.8751 227.38 45.8501C227.429 45.6591 227.396 45.4511 227.207 45.3021C224.947 43.5411 222.612 41.8291 220.237 40.2341C219.874 39.9851 219.437 40.5501 219.767 40.8411C221.92 42.7351 224.172 44.5631 226.449 46.3001C226.581 46.4001 226.721 46.4161 226.853 46.3831C227.018 46.4741 227.2 46.5411 227.381 46.5661C227.389 46.5661 227.397 46.5581 227.414 46.5581C225.129 48.9341 222.861 51.3191 220.576 53.6871C220.551 53.6701 220.543 53.6371 220.51 53.6211C219.867 53.1471 219.165 52.6901 218.473 52.2831C218.052 52.0421 217.557 52.6401 217.945 52.9811C218.259 53.2551 218.588 53.5291 218.927 53.7951C218.943 53.9361 219.009 54.0691 219.15 54.1441C219.364 54.2601 219.587 54.3771 219.802 54.4931C217.03 57.3761 214.251 60.2671 211.471 63.1501C211.488 62.9511 211.422 62.7431 211.199 62.5771C208.823 60.8741 206.588 58.9541 204.154 57.3261C203.89 57.1521 203.585 57.5501 203.816 57.7751C205.92 59.8111 208.279 61.5891 210.448 63.5581C210.605 63.6911 210.77 63.7321 210.918 63.7241C209.128 65.5771 207.346 67.4301 205.556 69.2821C204.871 69.0161 204.294 68.6671 203.758 68.0771C203.436 67.7281 202.818 68.1931 203.09 68.6001C203.503 69.1981 204.072 69.7631 204.715 70.1541C202.117 72.8461 199.518 75.5461 196.912 78.2381C194.619 76.1441 191.781 74.3001 189.15 72.6551C188.77 72.4141 188.325 72.9791 188.671 73.2861C190.948 75.3131 193.472 77.4981 196.07 79.1021C193.447 81.8191 190.824 84.5441 188.192 87.2531C187.903 86.7881 187.375 86.5381 186.938 86.2311C186.468 85.8901 185.998 85.5331 185.511 85.2091C185.148 84.9681 184.719 85.5251 185.041 85.8241C185.47 86.2231 185.932 86.5881 186.377 86.9711C186.756 87.2951 187.103 87.7021 187.573 87.8931C184.224 91.3491 180.892 94.8141 177.534 98.2621C177.517 98.2291 177.501 98.1871 177.468 98.1621C175.381 96.2011 172.939 94.4061 170.621 92.7451C170.266 92.4871 169.846 93.0441 170.159 93.3431C172.246 95.3041 174.473 97.3481 176.799 99.0181C174.448 101.436 172.105 103.854 169.755 106.263C168.567 105.773 167.594 104.892 166.695 103.986C166.439 103.728 165.994 104.069 166.192 104.385C166.893 105.515 167.891 106.337 168.972 107.069C165.994 110.127 163.016 113.176 160.03 116.225C160.005 116.208 159.989 116.175 159.948 116.159C159.849 116.126 159.758 116.151 159.684 116.192C159.667 116.101 159.635 116.009 159.552 115.934C157.35 113.79 154.363 112.145 151.699 110.666C151.287 110.442 150.94 111.048 151.336 111.298C153.951 113.001 156.31 115.078 158.909 116.773C159.033 116.864 159.173 116.873 159.288 116.839C159.313 116.872 159.329 116.905 159.346 116.93C156.261 120.087 153.184 123.244 150.099 126.402C150.033 126.336 149.983 126.294 149.967 126.277C149.711 126.053 149.456 125.837 149.2 125.612C148.854 125.321 148.433 124.798 147.979 124.681C147.352 124.523 146.94 125.271 147.484 125.653C147.608 125.753 147.748 125.686 147.83 125.578C147.937 125.885 148.886 126.666 149.059 126.833C149.158 126.924 149.257 127.032 149.364 127.149C147.03 129.542 144.695 131.935 142.361 134.319C141.47 133.206 140.34 132.25 139.259 131.336C138.112 130.372 136.867 129.259 135.481 128.661C135.11 128.503 134.697 128.927 135.027 129.259C136.066 130.322 137.378 131.128 138.492 132.117C139.564 133.064 140.513 134.161 141.577 135.116C138.781 137.958 136.001 140.816 133.204 143.657C132.899 143.374 132.561 143.117 132.255 142.868C131.744 142.419 131.232 141.954 130.679 141.564C130.324 141.315 130.019 141.83 130.25 142.121C130.679 142.653 131.182 143.126 131.669 143.617C131.916 143.866 132.172 144.165 132.444 144.431C129.978 146.94 127.519 149.458 125.053 151.958C122.636 149.715 120.161 147.554 117.794 145.236C117.514 144.953 117.126 145.369 117.373 145.668C119.41 148.177 121.794 150.67 124.36 152.664C121.976 155.09 119.592 157.525 117.2 159.951C116.235 159.353 115.336 158.646 114.428 157.965C114.156 157.766 113.842 158.198 114.073 158.422C114.865 159.195 115.739 159.868 116.597 160.566C114.254 162.934 111.92 165.319 109.577 167.695C107.243 165.743 104.611 164.048 102.12 162.286C101.732 162.02 101.237 162.66 101.609 162.959C103.96 164.82 106.286 166.839 108.769 168.509C106.237 171.076 103.712 173.652 101.172 176.211C100.768 175.696 100.248 175.239 99.7615 174.832C99.1595 174.325 98.4995 173.785 97.7655 173.503C97.5425 173.412 97.3944 173.736 97.5424 173.885C98.0864 174.45 98.7305 174.915 99.2745 175.48C99.7115 175.937 100.074 176.444 100.47 176.926C98.4335 178.987 96.4035 181.047 94.3665 183.099C92.0075 181.088 89.6235 179.152 87.3965 176.976C87.0585 176.644 86.5554 177.15 86.8764 177.491C88.9804 179.734 91.1904 181.961 93.6154 183.864C91.0084 186.49 88.4025 189.115 85.7955 191.74C85.3415 191.507 84.8885 191.266 84.4675 190.951C83.7995 190.453 83.1975 189.854 82.6445 189.223C82.4305 188.982 82.0174 189.298 82.1904 189.58C82.8834 190.685 83.8815 191.765 85.0285 192.513C84.2775 193.269 83.5274 194.025 82.7684 194.781C81.3164 196.243 79.8485 197.706 78.3885 199.168C77.2505 198.221 76.0455 197.365 74.8665 196.484C73.4805 195.462 72.1115 194.282 70.6015 193.468C70.2795 193.294 69.9495 193.709 70.2055 193.983C71.3855 195.238 72.8785 196.251 74.2225 197.315C75.3445 198.204 76.4415 199.118 77.5965 199.949C75.2865 202.259 72.9774 204.569 70.6674 206.878C69.9084 206.28 69.1164 205.706 68.3244 205.2C67.9784 204.976 67.5985 205.482 67.8875 205.765C68.5395 206.397 69.2405 207.003 69.9575 207.585C67.7385 209.787 65.5194 211.997 63.3004 214.207C63.3004 214.091 63.2594 213.966 63.1434 213.85C61.3284 211.947 59.1925 210.203 57.1795 208.516C56.7675 208.167 56.1815 208.724 56.5775 209.123C58.4335 210.984 60.3475 212.962 62.3925 214.607C62.5165 214.707 62.6485 214.74 62.7715 214.74C60.0085 217.49 57.2364 220.232 54.4814 222.99C54.2174 222.757 53.9374 222.533 53.6734 222.309C53.1784 221.877 52.6835 221.453 52.1805 221.029C51.8255 220.722 51.3144 221.212 51.6604 221.552C52.1224 222.017 52.5845 222.474 53.0545 222.94C53.2935 223.181 53.5325 223.447 53.7885 223.688C51.6105 225.865 49.4415 228.033 47.2805 230.21C45.1195 227.9 42.5534 225.732 39.8074 224.186C39.3294 223.92 38.9824 224.585 39.3954 224.9C41.9034 226.828 44.2704 228.764 46.5054 230.999C43.6184 233.915 40.7315 236.832 37.8685 239.773C37.8525 239.798 37.8435 239.815 37.8275 239.839C31.7565 234.198 25.6605 228.589 19.7375 222.782C16.7765 219.866 13.8475 216.924 10.9525 213.942C8.51945 211.433 1.97746 206.506 1.90346 202.767C1.90346 202.742 1.89545 202.725 1.88745 202.709C1.97845 202.709 2.07745 202.676 2.15945 202.601C57.8805 153.348 110.046 99.8741 161.906 46.5751C176.614 31.4601 191.272 16.3051 205.939 1.15009ZM26.4525 216.898C28.7045 216.607 30.1065 214.53 29.2655 212.345C29.2655 212.328 29.2575 212.32 29.2495 212.303C29.2495 212.286 29.2415 212.278 29.2335 212.261C28.7965 211.189 27.8975 210.068 26.8745 209.528C26.2975 209.229 25.4475 209.196 25.1505 209.811C23.4765 209.753 21.9825 211.165 21.9825 213.001C21.9815 215.402 24.1425 217.197 26.4525 216.898Z" fill="#65AE6C"/>
<path d="M195.604 81.7351C210.32 66.4891 225.003 51.2091 239.612 35.8641C239.818 35.6481 239.843 35.3991 239.769 35.1741C240.198 34.9331 240.619 34.6751 241.031 34.4011C241.171 35.9221 240.808 37.4091 239.992 38.7131C239.86 38.6881 239.712 38.7211 239.588 38.8541C220.368 58.5451 201.429 78.5191 182.184 98.1851C163.055 117.735 143.431 136.836 124.45 156.527C124.285 156.485 124.104 156.51 123.947 156.677C109.355 171.915 95.0917 187.809 79.3117 201.817C72.2917 208.057 66.3277 214.978 59.9517 221.841C52.8987 229.427 45.1867 236.132 37.6137 243.161C37.6137 243.086 37.5967 243.003 37.5557 242.928C37.7287 242.297 37.9017 241.665 38.0007 241.025C38.0167 240.942 38.0007 240.867 37.9757 240.801C38.0167 240.735 38.0497 240.668 38.0747 240.593C38.2397 240.659 38.4207 240.643 38.5857 240.493C65.6747 214.62 91.8567 187.709 118.179 161.047C129.01 150.071 139.816 139.063 150.597 128.037C151.133 128.103 151.521 127.613 151.438 127.181C166.205 112.077 180.929 96.9311 195.604 81.7351Z" fill="#3F9A47"/>
<path d="M14.8216 219.997C21.8986 227.217 29.1666 234.321 36.7806 240.976C36.9046 241.084 37.0366 241.142 37.1686 241.167C37.0856 241.558 37.0116 241.94 36.9536 242.33C30.9316 236.863 24.9676 231.338 19.0706 225.721C13.1316 220.071 7.48961 213.931 1.26161 208.597C1.37761 208.481 1.45161 208.323 1.41861 208.157C1.14661 206.562 0.865609 205.091 0.849609 203.471H0.907608C0.907608 205.856 3.0196 207.542 4.6116 209.27C7.9496 212.901 11.3656 216.466 14.8216 219.997Z" fill="#3F9A47"/>
<path d="M25.1245 212.768C24.4145 213.574 24.2505 214.862 25.1245 215.61C25.1495 215.635 25.1825 215.652 25.2155 215.66L25.1995 215.718C24.1845 215.46 23.3925 214.621 23.1455 213.558C22.7995 212.087 23.8795 210.766 25.2495 210.625C25.4315 210.775 25.6865 210.791 25.8925 210.65C25.9505 210.658 25.9995 210.667 26.0575 210.683C26.1895 210.716 26.3045 210.658 26.3795 210.567C26.7675 210.916 27.4935 211.639 27.7245 211.896C26.7575 211.846 25.7925 212.021 25.1245 212.768Z" fill="#3F9A47"/>
<path d="M206.855 7.26512C207.795 7.78012 208.727 8.31212 209.66 8.83512C210.048 9.05112 209.693 9.66612 209.322 9.43312C208.415 8.85112 207.507 8.27812 206.608 7.68812C206.352 7.52312 206.583 7.11612 206.855 7.26512Z" fill="black"/>
<path d="M210.592 6.90822C210.955 7.25722 210.427 7.75622 210.048 7.45622C209.528 7.03222 209.009 6.60021 208.464 6.21821C207.953 5.85221 207.392 5.56221 206.897 5.18821C206.65 4.99721 206.781 4.53221 207.12 4.64821C208.39 5.07221 209.627 5.98622 210.592 6.90822Z" fill="black"/>
<path d="M163.342 86.7033C163.689 86.4293 164.175 86.8943 163.837 87.2023C163.029 87.9333 162.261 88.6733 161.601 89.5533C161.362 89.8773 160.817 89.5703 161.057 89.2293C161.709 88.3073 162.46 87.4093 163.342 86.7033Z" fill="black"/>
<path d="M163.763 85.2161C164.126 85.0831 164.298 85.6231 164.009 85.8141C163.209 86.3461 162.476 86.8361 161.89 87.6251C161.651 87.9571 161.097 87.6501 161.336 87.3011C161.923 86.4291 162.757 85.5811 163.763 85.2161Z" fill="black"/>
<path d="M81.4556 131.337C81.6696 131.138 81.9916 131.462 81.7776 131.661C81.2246 132.16 80.6636 132.666 80.1116 133.165C81.0516 132.592 81.9516 132.027 82.7926 131.304C83.0896 131.046 83.5106 131.454 83.2296 131.736C82.3556 132.6 81.2496 133.356 80.0536 133.688C79.8886 133.73 79.7816 133.58 79.8056 133.447C79.3516 133.854 78.8986 134.261 78.4446 134.677C78.2796 134.826 78.0236 134.577 78.1976 134.419C79.2776 133.397 80.3666 132.367 81.4556 131.337Z" fill="black"/>
<path d="M31.1046 205.274C31.3356 205.631 30.7416 205.98 30.5436 205.606C30.2796 205.141 30.0236 204.667 29.7686 204.193C29.5956 203.886 30.0486 203.628 30.2386 203.919C30.5276 204.369 30.8156 204.826 31.1046 205.274Z" fill="black"/>
<path d="M26.7164 204.693C28.0614 204.934 29.2484 205.624 30.1564 206.654C30.3954 206.928 29.9994 207.327 29.7604 207.053C28.9104 206.089 27.8304 205.458 26.5844 205.175C26.2624 205.108 26.4024 204.634 26.7164 204.693Z" fill="black"/>
<path d="M26.4525 216.898C24.1425 217.197 21.9814 215.402 21.9814 213.001C21.9814 211.165 23.4745 209.752 25.1495 209.811C25.4465 209.196 26.2965 209.229 26.8735 209.528C27.8965 210.068 28.7955 211.19 29.2325 212.261C29.2405 212.278 29.2485 212.286 29.2485 212.303C29.2565 212.32 29.2645 212.328 29.2645 212.345C30.1065 214.53 28.7045 216.607 26.4525 216.898ZM25.2475 210.625C23.8785 210.766 22.7974 212.087 23.1434 213.558C23.3904 214.622 24.1824 215.461 25.1974 215.718C25.3954 215.776 25.5934 215.801 25.8074 215.809C26.9624 215.834 28.1664 215.227 28.3564 213.989C28.4144 213.574 28.3484 213.183 28.2164 212.817C27.4414 212.692 26.5915 212.692 25.9565 213.183C25.3375 213.665 25.0905 214.612 25.5685 215.26C25.7505 215.509 25.4365 215.742 25.2135 215.659C25.1805 215.651 25.1475 215.634 25.1225 215.609C24.2485 214.861 24.4125 213.573 25.1225 212.767C25.7905 212.019 26.7555 211.845 27.7205 211.895C27.4895 211.638 26.7635 210.915 26.3755 210.566C26.3015 210.657 26.1855 210.716 26.0535 210.682C25.9955 210.665 25.9465 210.657 25.8885 210.649C25.6855 210.791 25.4295 210.775 25.2475 210.625Z" fill="black"/>
<path d="M240.428 39.1122C240.469 39.2702 240.445 39.4362 240.313 39.5862C221.547 59.7182 202.236 79.3422 182.984 98.9922C163.739 118.625 144.651 138.532 124.747 157.492C124.731 157.517 124.706 157.517 124.689 157.534C110.022 172.955 95.6195 189.09 79.5925 203.09C64.9425 215.893 53.6165 232.087 37.8445 243.735C37.6795 243.86 37.4985 243.735 37.4325 243.577C37.2345 243.768 36.9125 243.843 36.6485 243.602C30.4615 237.977 24.3415 232.278 18.2945 226.503C12.2895 220.778 5.88853 215.154 0.50953 208.814C0.37753 208.656 0.410541 208.473 0.517541 208.365C-0.134459 206.77 -0.125466 204.826 0.294534 203.189C0.377534 202.873 0.847543 202.948 0.847543 203.264C0.847543 203.339 0.847543 203.405 0.847543 203.472C0.863543 205.092 1.14454 206.563 1.41654 208.158C1.44954 208.324 1.37553 208.482 1.25953 208.598C7.48753 213.932 13.1295 220.072 19.0685 225.722C24.9665 231.339 30.9305 236.864 36.9515 242.331C37.0095 241.94 37.0835 241.558 37.1665 241.168C37.0345 241.143 36.9025 241.085 36.7785 240.977C29.1645 234.322 21.8975 227.218 14.8195 219.998C11.3635 216.467 7.94854 212.902 4.60754 209.272C3.01554 207.544 0.903542 205.857 0.903542 203.473C0.903542 203.199 0.928543 202.925 0.985543 202.642C1.02654 202.401 1.21653 202.301 1.40653 202.31C1.39853 202.202 1.43154 202.086 1.53854 201.986C16.9475 187.612 32.4385 173.33 47.6575 158.748C101.416 107.235 153.26 53.7611 204.997 0.204149C205.343 -0.161851 205.805 0.0131558 206.012 0.345156C206.144 0.220156 206.342 0.171154 206.523 0.278154C213.592 4.50715 220.002 10.1902 226.213 15.5822C231.88 20.4922 238.446 25.4692 241.812 32.3742C241.861 32.4742 241.886 32.5822 241.894 32.6812C242.232 32.8472 242.438 33.3292 242.084 33.6282C242.043 33.6612 241.993 33.6862 241.944 33.7282C242.342 35.7052 241.781 37.6502 240.428 39.1122ZM239.611 35.8632C225.002 51.2092 210.319 66.4881 195.603 81.7341C180.928 96.9301 166.204 112.077 151.439 127.182C151.521 127.614 151.134 128.104 150.598 128.038C139.817 139.063 129.011 150.072 118.18 161.048C91.8575 187.71 65.6755 214.621 38.5865 240.494C38.4215 240.644 38.2405 240.66 38.0755 240.594C38.0505 240.669 38.0175 240.735 37.9765 240.802C38.0015 240.869 38.0175 240.943 38.0015 241.026C37.9025 241.666 37.7295 242.297 37.5565 242.929C37.5975 243.004 37.6145 243.087 37.6145 243.162C45.1865 236.133 52.8995 229.428 59.9525 221.842C66.3285 214.979 72.2925 208.058 79.3125 201.818C95.0925 187.81 109.355 171.916 123.948 156.678C124.105 156.512 124.286 156.487 124.451 156.528C143.432 136.837 163.056 117.736 182.185 98.1862C201.43 78.5202 220.369 58.5462 239.589 38.8552C239.713 38.7222 239.861 38.6892 239.993 38.7142C240.81 37.4102 241.173 35.9222 241.032 34.4022C240.62 34.6762 240.199 34.9342 239.77 35.1752C239.842 35.3982 239.818 35.6472 239.611 35.8632ZM204.15 57.3242C206.584 58.9532 208.819 60.8722 211.195 62.5752C211.418 62.7412 211.484 62.9492 211.467 63.1482C214.247 60.2652 217.027 57.3742 219.798 54.4912C219.584 54.3752 219.361 54.2582 219.146 54.1422C219.006 54.0672 218.94 53.9342 218.923 53.7932C218.585 53.5272 218.255 53.2532 217.941 52.9792C217.553 52.6382 218.048 52.0402 218.469 52.2812C219.162 52.6882 219.863 53.1452 220.506 53.6192C220.539 53.6362 220.547 53.6692 220.572 53.6852C222.857 51.3172 225.125 48.9322 227.41 46.5562C227.393 46.5562 227.385 46.5642 227.377 46.5642C227.196 46.5392 227.014 46.4732 226.849 46.3812C226.717 46.4142 226.577 46.3982 226.445 46.2982C224.168 44.5612 221.916 42.7342 219.763 40.8392C219.433 40.5482 219.87 39.9832 220.233 40.2322C222.609 41.8272 224.943 43.5392 227.203 45.3002C227.393 45.4502 227.426 45.6572 227.376 45.8482C227.434 45.8732 227.491 45.8902 227.541 45.9232C227.657 45.9982 227.706 46.1312 227.689 46.2552C229.438 44.4442 231.178 42.6242 232.927 40.8052C232.622 40.5392 232.325 40.2732 231.987 40.0492C231.599 39.7832 231.162 39.5922 230.766 39.3342C230.436 39.1182 230.659 38.6362 231.03 38.7112C231.904 38.8942 232.894 39.4842 233.595 40.1072C235.269 38.3622 236.952 36.6172 238.618 34.8642C238.651 34.8312 238.692 34.8142 238.725 34.7892C239.311 34.2412 239.937 33.6922 240.597 33.2102C240.58 33.1772 240.548 33.1602 240.531 33.1192C237.149 26.1652 230.344 21.0632 224.611 16.1282C218.556 10.9182 211.99 6.30715 206.026 1.01515C205.993 1.05715 205.977 1.10615 205.935 1.14815C191.269 16.3031 176.61 31.4572 161.903 46.5712C110.043 99.8702 57.8765 153.344 2.15554 202.597C2.07254 202.672 1.97454 202.705 1.88354 202.705C1.89154 202.722 1.89954 202.738 1.89954 202.763C1.97354 206.502 8.51554 211.429 10.9485 213.938C13.8435 216.921 16.7725 219.862 19.7335 222.778C25.6565 228.586 31.7525 234.194 37.8235 239.835C37.8395 239.81 37.8485 239.793 37.8645 239.769C40.7265 236.828 43.6135 233.911 46.5015 230.995C44.2665 228.76 41.8985 226.824 39.3915 224.896C38.9785 224.58 39.3255 223.916 39.8035 224.182C42.5505 225.727 45.1155 227.896 47.2765 230.206C49.4375 228.029 51.6075 225.861 53.7845 223.684C53.5285 223.443 53.2895 223.177 53.0505 222.936C52.5805 222.471 52.1185 222.014 51.6565 221.548C51.3105 221.207 51.8215 220.717 52.1765 221.025C52.6795 221.449 53.1745 221.873 53.6695 222.305C53.9335 222.529 54.2135 222.754 54.4775 222.986C57.2325 220.228 60.0045 217.486 62.7675 214.736C62.6435 214.736 62.5115 214.703 62.3885 214.603C60.3425 212.958 58.4285 210.981 56.5735 209.119C56.1775 208.72 56.7635 208.163 57.1755 208.512C59.1885 210.199 61.3245 211.943 63.1395 213.846C63.2545 213.962 63.2965 214.087 63.2965 214.203C65.5155 211.993 67.7345 209.783 69.9535 207.581C69.2355 206.999 68.5345 206.393 67.8835 205.761C67.5945 205.478 67.9745 204.972 68.3205 205.196C69.1125 205.703 69.9045 206.276 70.6635 206.874C72.9735 204.564 75.2825 202.254 77.5925 199.945C76.4375 199.114 75.3405 198.2 74.2185 197.311C72.8735 196.247 71.3805 195.234 70.2015 193.979C69.9455 193.705 70.2755 193.289 70.5975 193.464C72.1075 194.278 73.4765 195.458 74.8625 196.48C76.0425 197.361 77.2465 198.217 78.3845 199.164C79.8445 197.702 81.3125 196.239 82.7645 194.777C83.5235 194.021 84.2735 193.265 85.0245 192.509C83.8775 191.761 82.8795 190.681 82.1865 189.576C82.0135 189.293 82.4255 188.978 82.6405 189.219C83.1935 189.851 83.7955 190.449 84.4635 190.947C84.8845 191.263 85.3375 191.504 85.7915 191.736C88.3985 189.111 91.0045 186.485 93.6115 183.86C91.1865 181.957 88.9755 179.731 86.8725 177.487C86.5505 177.146 87.0545 176.64 87.3925 176.972C89.6195 179.149 92.0035 181.085 94.3625 183.095C96.3995 181.043 98.4295 178.982 100.467 176.922C100.071 176.44 99.7075 175.933 99.2705 175.476C98.7265 174.911 98.0825 174.446 97.5385 173.881C97.3905 173.731 97.5385 173.407 97.7615 173.499C98.4955 173.782 99.1555 174.322 99.7575 174.828C100.245 175.235 100.764 175.692 101.169 176.207C103.71 173.648 106.234 171.072 108.766 168.505C106.283 166.835 103.957 164.816 101.606 162.955C101.235 162.656 101.73 162.016 102.117 162.282C104.608 164.043 107.24 165.738 109.574 167.691C111.917 165.315 114.251 162.93 116.594 160.562C115.736 159.864 114.862 159.191 114.07 158.418C113.839 158.194 114.153 157.762 114.425 157.961C115.332 158.642 116.232 159.349 117.197 159.947C119.589 157.521 121.973 155.086 124.357 152.66C121.792 150.666 119.408 148.173 117.37 145.664C117.123 145.365 117.51 144.949 117.791 145.232C120.158 147.55 122.633 149.71 125.05 151.954C127.516 149.453 129.975 146.936 132.441 144.427C132.169 144.161 131.913 143.862 131.666 143.613C131.179 143.123 130.676 142.649 130.247 142.117C130.016 141.826 130.321 141.311 130.676 141.56C131.229 141.951 131.74 142.416 132.252 142.864C132.557 143.113 132.895 143.371 133.201 143.653C135.997 140.812 138.777 137.953 141.574 135.112C140.51 134.157 139.561 133.06 138.489 132.113C137.375 131.124 136.064 130.318 135.024 129.255C134.694 128.923 135.107 128.499 135.478 128.657C136.864 129.255 138.109 130.369 139.256 131.332C140.337 132.246 141.467 133.201 142.358 134.315C144.693 131.93 147.027 129.538 149.361 127.145C149.254 127.029 149.155 126.921 149.056 126.829C148.883 126.663 147.934 125.882 147.827 125.574C147.744 125.682 147.604 125.748 147.481 125.649C146.937 125.267 147.349 124.519 147.976 124.677C148.43 124.793 148.85 125.317 149.197 125.608C149.453 125.832 149.709 126.048 149.964 126.273C149.98 126.29 150.03 126.331 150.096 126.398C153.181 123.241 156.258 120.084 159.343 116.926C159.327 116.901 159.31 116.868 159.285 116.835C159.169 116.868 159.029 116.86 158.906 116.769C156.308 115.074 153.948 112.997 151.333 111.294C150.937 111.045 151.284 110.438 151.696 110.662C154.36 112.141 157.347 113.786 159.549 115.93C159.632 116.005 159.664 116.096 159.681 116.188C159.755 116.146 159.846 116.122 159.945 116.155C159.986 116.172 160.003 116.205 160.027 116.221C163.013 113.172 165.991 110.123 168.969 107.065C167.888 106.334 166.89 105.511 166.189 104.381C165.991 104.065 166.436 103.725 166.692 103.982C167.591 104.888 168.564 105.768 169.752 106.259C172.103 103.849 174.446 101.432 176.796 99.0141C174.47 97.3441 172.243 95.3002 170.156 93.3392C169.843 93.0402 170.263 92.4831 170.618 92.7411C172.936 94.4031 175.378 96.1972 177.465 98.1582C177.498 98.1832 177.514 98.2241 177.531 98.2581C180.888 94.8101 184.221 91.3451 187.57 87.8891C187.1 87.6981 186.753 87.2911 186.374 86.9671C185.929 86.5851 185.467 86.2191 185.038 85.8201C184.716 85.5211 185.145 84.9642 185.508 85.2052C185.995 85.5292 186.465 85.8862 186.935 86.2272C187.372 86.5342 187.9 86.7841 188.189 87.2491C190.82 84.5401 193.443 81.8151 196.067 79.0981C193.469 77.4941 190.944 75.3092 188.668 73.2822C188.322 72.9752 188.767 72.4102 189.147 72.6512C191.778 74.2962 194.616 76.1411 196.909 78.2341C199.516 75.5421 202.114 72.8421 204.712 70.1501C204.069 69.7591 203.499 69.1941 203.087 68.5961C202.815 68.1891 203.433 67.7242 203.755 68.0732C204.291 68.6632 204.869 69.0122 205.553 69.2782C207.343 67.4252 209.125 65.5722 210.915 63.7202C210.767 63.7282 210.602 63.6872 210.445 63.5542C208.276 61.5852 205.916 59.8072 203.813 57.7712C203.58 57.5482 203.886 57.1502 204.15 57.3242Z" fill="black"/>
<path d="M223.685 219.334C220.598 223.025 216.215 228.106 210.95 228.227C208.512 228.278 206.531 226.931 204.734 225.424C201.859 223.015 199.1 220.452 196.289 217.968C196.207 217.893 196.165 217.803 196.141 217.718C191.998 218.557 190.591 215.24 191.504 211.485C191.429 211.497 191.355 211.514 191.275 211.527C191.097 211.553 190.961 211.459 190.876 211.332C189.735 212.04 188.315 211.521 187.481 210.558C186.365 209.264 186.556 207.446 186.965 205.883C186.936 205.815 186.919 205.741 186.913 205.666L186.908 205.672C185.665 206.336 184.005 205.871 183.075 204.876C182.133 203.864 181.992 202.404 182.551 201.179C182.43 201.2 182.3 201.17 182.174 201.052L149.895 170.525C130.747 152.421 111.599 134.324 92.4567 116.214C82.9957 107.264 73.5287 98.3192 64.0737 89.3632C55.3287 81.0702 46.2657 72.7392 38.8077 63.2322C38.6587 63.0462 38.7967 62.8082 38.9827 62.7292C33.7657 55.6472 29.2717 47.8612 24.7967 40.3122C20.2207 32.5972 15.8847 24.7402 11.7537 16.7742C11.5487 16.3892 12.0867 15.9272 12.4477 16.1482C20.1697 20.8362 27.9497 25.4382 35.8007 29.9182C43.5297 34.3322 51.4757 38.4032 59.1177 42.9582C59.1877 42.9582 59.2587 42.9762 59.3277 43.0402C59.3717 43.0772 59.4157 43.1202 59.4597 43.1572C59.4597 43.1632 59.4657 43.1622 59.4657 43.1622C59.5087 43.1882 59.5397 43.2202 59.5657 43.2532C70.2817 52.9812 80.8747 62.8402 91.4347 72.7312C129.023 107.948 166.044 143.775 202.515 180.141C204.186 177.93 208.339 179.591 207.658 182.408C207.64 182.479 207.616 182.533 207.585 182.582C207.587 182.605 207.583 182.629 207.585 182.652C210.142 182.056 212.355 183.821 212.952 186.326C212.989 186.497 213.014 186.664 213.045 186.83C216.743 185.951 218.588 189.507 218.469 192.738C218.566 192.718 218.678 192.733 218.789 192.811C222.777 195.834 228.754 199.499 229.726 204.853C230.745 210.438 227.043 215.318 223.685 219.334ZM210.867 227.193C215.817 227.138 220.008 222.119 222.911 218.669C226.218 214.739 230.193 209.65 228.563 204.135C227.211 199.551 221.802 196.514 218.402 193.496C218.371 193.754 218.321 194.008 218.26 194.258C216.979 199.368 213.377 204.543 209.936 208.466C206.59 212.271 202.178 215.906 197.241 217.432C199.151 219.122 201.066 220.811 202.976 222.501C205.185 224.452 207.648 227.231 210.867 227.193ZM192.281 215.354C193.414 217.508 195.487 216.887 197.091 216.374C198.684 215.862 200.246 215.044 201.666 214.185C204.495 212.48 206.993 210.284 209.173 207.818C211.39 205.308 213.283 202.527 214.884 199.589C215.771 197.965 216.671 196.287 217.184 194.496C218.04 191.479 217.108 187.053 213.111 187.537C213.265 190.682 211.316 193.922 209.758 196.449C206.107 202.39 199.696 209.657 192.478 211.303C192.495 211.371 192.495 211.441 192.479 211.53C192.212 212.545 191.753 214.361 192.281 215.354ZM191.008 210.659C191.031 210.651 191.052 210.632 191.081 210.624C196.917 209.218 201.903 204.984 205.703 200.462C207.571 198.235 209.2 195.796 210.51 193.201C212.141 189.982 213.546 182.803 207.67 183.206C207.653 183.207 207.641 183.203 207.623 183.198C207.847 188.001 204.063 193.237 201.043 196.533C197.29 200.621 192.631 203.723 187.634 206.086C187.5 207.167 187.371 208.311 187.824 209.316C188.311 210.387 189.39 210.929 190.495 210.491C190.708 210.409 190.896 210.505 191.008 210.659ZM187.079 205.27C187.117 205.232 187.16 205.194 187.216 205.166C191.814 202.97 196.137 200.185 199.697 196.508C203.037 193.064 207.017 187.742 206.922 182.655C206.847 182.585 206.787 182.491 206.765 182.365C206.623 181.463 206.403 180.609 205.481 180.212C204.62 179.845 203.723 180.185 203.026 180.712C203.177 181.078 202.834 181.507 202.484 181.418C199.008 189.962 191.447 197.031 183.522 201.391C183.4 201.459 183.279 201.475 183.167 201.454C182.857 202.444 183.058 203.638 183.848 204.353C184.676 205.1 185.613 205.037 186.631 204.897C186.86 204.863 187.033 205.058 187.079 205.27ZM182.849 200.266C182.925 200.341 182.966 200.419 182.99 200.505C185.59 199.069 187.919 197.439 190.036 195.629C189.988 195.61 189.939 195.585 189.889 195.536C179.4 185.377 168.948 175.175 158.433 165.048C121.157 129.16 83.1917 94.0312 45.4347 58.6592C45.5377 60.0872 45.3037 61.5082 44.3437 62.6662C43.3517 63.8572 41.7857 64.4772 40.3687 63.9342C40.3697 63.9402 40.3637 63.9402 40.3577 63.9412C49.6647 73.9332 59.2777 83.4762 69.2097 92.8542C107.095 128.651 144.97 164.461 182.849 200.266ZM190.527 194.786C190.615 194.872 190.653 194.974 190.666 195.071C193.413 192.64 195.798 189.901 197.975 186.893C199.347 185.003 200.634 183.004 201.873 180.915C191.686 170.744 181.449 160.611 171.175 150.528C134.269 114.32 96.6297 78.9092 58.9137 43.5452C58.8287 43.5052 58.7387 43.4602 58.6537 43.4202C59.5287 47.2052 56.0047 50.5312 52.3857 50.0132C52.3987 50.0242 52.4107 50.0342 52.4237 50.0452L52.0837 50.4392C53.2307 54.3542 49.4997 59.5912 46.0567 58.4322C56.8237 68.0742 67.4517 77.8612 78.0467 87.6852C116 122.88 153.636 158.477 190.527 194.786ZM40.5087 63.2762C43.9157 63.1242 44.9177 60.0312 44.1147 56.9202C43.9637 56.3452 44.6447 55.9882 45.0247 56.4462C47.0037 58.8512 49.9197 56.5702 50.8737 54.6202C51.6927 52.9492 51.6077 51.2352 50.6377 49.6612C50.4507 49.3562 50.6237 49.0522 50.8697 48.9332C50.9557 48.8452 51.0747 48.8002 51.2167 48.8412C55.1677 50.0292 58.2107 47.0802 57.5797 43.1472C57.5617 43.0612 57.5787 42.9842 57.6077 42.9182C47.1197 37.8942 36.9087 32.0632 26.8647 26.0562C26.5217 28.9512 24.4787 31.3832 21.7447 32.3882C21.6027 32.4342 21.4797 32.4212 21.3767 32.3652C22.9557 35.1512 24.5567 37.9192 26.1977 40.6712C30.7687 48.3352 35.9107 55.6442 40.5087 63.2762ZM21.1127 31.9042C21.1157 31.7292 21.2067 31.5592 21.4157 31.4782C23.9927 30.5492 25.7337 28.3392 26.2417 25.6812C21.9767 23.1282 17.7387 20.5442 13.5257 17.9812C15.9717 22.6642 18.5087 27.3042 21.1127 31.9042Z" fill="#222221"/>
<path d="M222.911 218.669C220.008 222.119 215.817 227.138 210.867 227.193C207.648 227.231 205.186 224.452 202.976 222.501C201.066 220.811 199.151 219.122 197.241 217.432C202.178 215.906 206.59 212.271 209.936 208.466C213.377 204.543 216.979 199.368 218.26 194.258C218.321 194.009 218.371 193.755 218.402 193.496C221.803 196.514 227.211 199.55 228.563 204.135C230.193 209.65 226.218 214.739 222.911 218.669ZM226.343 209.507C226.31 209.893 226.913 210.014 226.94 209.622C227.045 208.328 227.116 207.037 227.157 205.743C227.166 205.492 226.739 205.468 226.713 205.721C226.558 206.977 226.433 208.243 226.343 209.507ZM227.253 208.823C227.14 209.146 227.624 209.381 227.731 209.058C228.261 207.48 228.183 206.009 227.555 204.484C227.504 204.354 227.317 204.422 227.357 204.552C227.782 205.931 227.72 207.465 227.253 208.823Z" fill="#DCA1A1"/>
<path d="M197.091 216.374C195.486 216.887 193.414 217.507 192.281 215.354C191.753 214.361 192.212 212.545 192.479 211.529C192.495 211.44 192.495 211.371 192.478 211.302C199.696 209.657 206.107 202.389 209.758 196.448C211.317 193.921 213.266 190.682 213.111 187.536C217.108 187.052 218.04 191.478 217.184 194.495C216.671 196.287 215.771 197.964 214.884 199.588C213.283 202.526 211.39 205.307 209.173 207.817C206.993 210.284 204.495 212.48 201.666 214.184C200.247 215.044 198.684 215.862 197.091 216.374ZM196.421 211.805C196.139 211.985 196.38 212.454 196.69 212.324C197.738 211.908 198.755 211.245 199.726 210.672C199.931 210.551 199.752 210.199 199.533 210.298C198.5 210.753 197.373 211.199 196.421 211.805ZM197.049 210.504C196.864 210.74 197.156 211.112 197.413 210.911C197.791 210.619 198.118 210.279 198.522 210.019C198.953 209.74 199.419 209.528 199.905 209.355C200.187 209.251 200.027 208.845 199.742 208.92C198.779 209.167 197.67 209.692 197.049 210.504Z" fill="#6F6F6F"/>
<path d="M196.69 212.324C196.381 212.454 196.139 211.984 196.421 211.805C197.373 211.199 198.5 210.754 199.533 210.298C199.752 210.199 199.931 210.551 199.726 210.672C198.755 211.245 197.738 211.908 196.69 212.324Z" fill="#222221"/>
<path d="M226.94 209.621C226.913 210.013 226.311 209.893 226.343 209.506C226.433 208.243 226.558 206.976 226.713 205.719C226.739 205.467 227.166 205.491 227.157 205.741C227.115 207.037 227.045 208.328 226.94 209.621Z" fill="#222221"/>
<path d="M227.732 209.058C227.624 209.381 227.14 209.146 227.254 208.823C227.72 207.465 227.783 205.931 227.358 204.552C227.318 204.421 227.505 204.354 227.556 204.484C228.184 206.009 228.262 207.48 227.732 209.058Z" fill="#222221"/>
<path d="M197.413 210.911C197.156 211.112 196.864 210.74 197.049 210.504C197.67 209.692 198.779 209.167 199.742 208.921C200.027 208.846 200.187 209.252 199.905 209.356C199.419 209.529 198.953 209.741 198.522 210.02C198.118 210.278 197.791 210.619 197.413 210.911Z" fill="#222221"/>
<path d="M191.08 210.624C191.052 210.632 191.03 210.651 191.007 210.659C190.896 210.505 190.708 210.41 190.493 210.491C189.388 210.929 188.31 210.387 187.822 209.316C187.369 208.311 187.498 207.167 187.632 206.086C192.629 203.724 197.288 200.621 201.041 196.533C204.061 193.237 207.845 188.001 207.621 183.198C207.639 183.203 207.651 183.207 207.668 183.206C213.544 182.803 212.139 189.982 210.508 193.201C209.199 195.795 207.569 198.235 205.701 200.462C201.903 204.984 196.916 209.218 191.08 210.624Z" fill="#6F6F6F"/>
<path d="M187.216 205.166C187.16 205.194 187.117 205.232 187.079 205.27C187.033 205.059 186.86 204.863 186.63 204.899C185.612 205.039 184.675 205.103 183.847 204.355C183.057 203.639 182.856 202.446 183.166 201.456C183.278 201.476 183.399 201.461 183.521 201.393C191.446 197.033 199.007 189.964 202.483 181.42C202.833 181.508 203.177 181.079 203.025 180.714C203.721 180.187 204.618 179.847 205.48 180.214C206.402 180.611 206.622 181.466 206.764 182.367C206.786 182.493 206.846 182.587 206.921 182.657C207.016 187.744 203.036 193.065 199.696 196.51C196.137 200.185 191.814 202.97 187.216 205.166ZM202.403 185.473C202.234 185.69 202.499 186.012 202.735 185.842C203.619 185.195 204.136 183.961 204.302 182.913C204.345 182.654 203.962 182.586 203.906 182.84C203.783 183.338 203.607 183.824 203.346 184.269C203.087 184.726 202.725 185.069 202.403 185.473ZM201.994 184.733C201.913 185.03 202.41 185.2 202.508 184.901C202.897 183.741 203.326 182.631 203.805 181.505C203.907 181.253 203.563 181.094 203.43 181.326C202.798 182.365 202.307 183.556 201.994 184.733Z" fill="#6F6F6F"/>
<path d="M182.991 200.504C182.967 200.419 182.926 200.341 182.85 200.265C144.97 164.461 107.096 128.65 69.2106 92.8522C59.2786 83.4742 49.6656 73.9312 40.3586 63.9392C40.3646 63.9392 40.3706 63.9382 40.3696 63.9322C41.7856 64.4752 43.3526 63.8552 44.3446 62.6642C45.3036 61.5052 45.5386 60.0852 45.4356 58.6572C83.1936 94.0292 121.159 129.158 158.434 165.046C168.95 175.173 179.401 185.376 189.89 195.534C189.94 195.582 189.989 195.607 190.037 195.627C187.92 197.438 185.591 199.068 182.991 200.504ZM52.3776 69.7012C52.6416 69.8722 52.8926 69.4502 52.6726 69.2532C51.8136 68.4852 50.7966 67.8402 49.8596 67.1772C49.6256 67.0102 49.3316 67.3362 49.5676 67.5202C50.4756 68.2602 51.3906 69.0712 52.3776 69.7012ZM52.4876 67.9652C52.6776 68.0892 52.8826 67.8112 52.7636 67.6402C52.2976 66.9802 51.5926 66.4552 51.0016 65.9092C50.3356 65.2942 49.6756 64.6782 49.0046 64.0692C48.7656 63.8502 48.4476 64.2242 48.6806 64.4502C49.3306 65.0782 49.9846 65.7002 50.6466 66.3272C51.2316 66.8852 51.7906 67.5442 52.4876 67.9652Z" fill="#E7BC3D"/>
<path d="M190.666 195.071C190.652 194.973 190.615 194.871 190.527 194.786C153.636 158.477 116 122.88 78.0466 87.6862C67.4506 77.8622 56.8236 68.0752 46.0566 58.4332C49.4996 59.5922 53.2306 54.3552 52.0836 50.4402C70.8566 68.2132 90.1386 85.4572 109.05 103.079C127.905 120.648 146.653 138.336 165.283 156.144C175.968 166.357 186.61 176.608 197.22 186.902C197.46 187.133 197.743 187.046 197.908 186.847L197.976 186.894C195.798 189.901 193.413 192.64 190.666 195.071ZM192.914 187.162C193.145 187.364 193.487 187.052 193.31 186.805C193.007 186.37 192.593 185.99 192.236 185.6C191.841 185.166 191.446 184.739 191.04 184.324C190.869 184.146 190.571 184.42 190.725 184.605C191.41 185.457 192.099 186.43 192.914 187.162ZM193.34 185.08C193.53 185.268 193.838 184.982 193.681 184.768C192.832 183.615 191.637 182.635 190.482 181.798C190.279 181.657 190.028 181.939 190.227 182.098C191.364 183.012 192.304 184.059 193.34 185.08ZM105.031 103.444C105.231 103.69 105.622 103.42 105.433 103.167C104.818 102.321 103.994 101.614 103.127 101.038C102.942 100.913 102.707 101.171 102.898 101.306C103.728 101.92 104.391 102.64 105.031 103.444ZM104.994 101.388C105.185 101.518 105.459 101.316 105.313 101.095C104.93 100.527 104.295 100.083 103.756 99.6672C103.198 99.2412 102.609 98.8522 102.004 98.4942C101.79 98.3662 101.637 98.7102 101.84 98.8392C102.429 99.2222 102.998 99.6362 103.534 100.087C104.027 100.5 104.464 101.024 104.994 101.388Z" fill="#E7BC3D"/>
<path d="M197.907 186.847C197.743 187.046 197.459 187.133 197.219 186.902C186.609 176.608 175.967 166.357 165.282 156.144C146.652 138.336 127.904 120.648 109.049 103.079C90.1378 85.4571 70.8548 68.2131 52.0828 50.4401L52.4228 50.0461C63.3528 59.5411 73.9688 69.3991 84.6258 79.1951C122.869 114.313 160.599 149.99 197.872 186.134C198.1 186.355 198.06 186.654 197.907 186.847Z" fill="#222221"/>
<path d="M197.975 186.894L197.907 186.847C198.06 186.654 198.1 186.355 197.873 186.134C160.6 149.99 122.87 114.313 84.6267 79.1951C73.9687 69.3991 63.3537 59.5411 52.4237 50.0461C52.4117 50.0351 52.3987 50.0251 52.3857 50.0141C56.0037 50.5311 59.5277 47.2061 58.6537 43.4211C58.7387 43.4611 58.8297 43.5061 58.9137 43.5461C96.6297 78.9101 134.269 114.321 171.175 150.529C181.448 160.612 191.685 170.744 201.873 180.916C200.634 183.004 199.347 185.004 197.975 186.894ZM96.3527 83.2641C96.6097 83.5631 97.0387 83.1861 96.7587 82.8941C96.0027 82.0941 95.2517 81.2941 94.4897 80.5001C94.3307 80.3331 94.0377 80.5951 94.1917 80.7741C94.9047 81.6071 95.6347 82.4331 96.3527 83.2641ZM97.8057 82.3101C98.0527 82.4821 98.3347 82.1631 98.1137 81.9481C96.5937 80.4771 94.8747 79.2021 93.3437 77.7381C93.1667 77.5661 92.9347 77.8521 93.0987 78.0191C94.5607 79.5011 96.0817 81.1291 97.8057 82.3101Z" fill="#E7BC3D"/>
<path d="M193.31 186.804C193.487 187.051 193.146 187.364 192.914 187.161C192.099 186.43 191.41 185.456 190.725 184.604C190.571 184.419 190.868 184.145 191.04 184.323C191.446 184.738 191.841 185.166 192.236 185.599C192.593 185.99 193.007 186.369 193.31 186.804Z" fill="#222221"/>
<path d="M202.735 185.842C202.499 186.012 202.234 185.69 202.403 185.473C202.725 185.069 203.087 184.726 203.347 184.269C203.608 183.823 203.784 183.338 203.907 182.84C203.962 182.585 204.346 182.653 204.303 182.913C204.136 183.961 203.619 185.195 202.735 185.842Z" fill="#222221"/>
<path d="M202.508 184.901C202.41 185.2 201.914 185.03 201.994 184.733C202.306 183.556 202.798 182.365 203.43 181.326C203.562 181.094 203.907 181.253 203.805 181.505C203.325 182.631 202.897 183.741 202.508 184.901Z" fill="#222221"/>
<path d="M193.681 184.768C193.838 184.982 193.529 185.269 193.34 185.08C192.304 184.058 191.365 183.012 190.227 182.097C190.028 181.938 190.279 181.657 190.482 181.797C191.636 182.635 192.832 183.615 193.681 184.768Z" fill="#222221"/>
<path d="M105.434 103.167C105.623 103.419 105.232 103.689 105.032 103.444C104.392 102.641 103.729 101.921 102.9 101.307C102.709 101.171 102.944 100.914 103.129 101.039C103.994 101.614 104.819 102.321 105.434 103.167Z" fill="#222221"/>
<path d="M105.313 101.095C105.459 101.316 105.184 101.518 104.994 101.388C104.464 101.024 104.027 100.501 103.534 100.087C102.998 99.6361 102.429 99.2221 101.84 98.8391C101.638 98.7101 101.79 98.3661 102.004 98.4941C102.609 98.8521 103.198 99.2411 103.756 99.6671C104.296 100.083 104.93 100.527 105.313 101.095Z" fill="#222221"/>
<path d="M96.7588 82.8952C97.0378 83.1872 96.6088 83.5642 96.3528 83.2652C95.6348 82.4332 94.9048 81.6082 94.1928 80.7752C94.0388 80.5962 94.3318 80.3342 94.4908 80.5012C95.2518 81.2942 96.0028 82.0952 96.7588 82.8952Z" fill="#222221"/>
<path d="M98.1138 81.9482C98.3348 82.1632 98.0518 82.4822 97.8058 82.3102C96.0828 81.1292 94.5618 79.5002 93.0988 78.0192C92.9338 77.8522 93.1668 77.5662 93.3438 77.7382C94.8748 79.2022 96.5938 80.4772 98.1138 81.9482Z" fill="#222221"/>
<path d="M52.6727 69.2523C52.8917 69.4503 52.6407 69.8713 52.3777 69.7003C51.3907 69.0703 50.4767 68.2603 49.5677 67.5193C49.3317 67.3353 49.6257 67.0093 49.8597 67.1763C50.7967 67.8393 51.8137 68.4843 52.6727 69.2523Z" fill="#222221"/>
<path d="M52.7638 67.6403C52.8818 67.8113 52.6778 68.0893 52.4878 67.9653C51.7908 67.5443 51.2318 66.8863 50.6458 66.3283C49.9848 65.7013 49.3298 65.0793 48.6798 64.4513C48.4468 64.2253 48.7658 63.8513 49.0038 64.0703C49.6748 64.6793 50.3348 65.2953 51.0008 65.9103C51.5928 66.4553 52.2978 66.9803 52.7638 67.6403Z" fill="#222221"/>
<path d="M44.1147 56.9201C44.9177 60.0311 43.9157 63.1241 40.5087 63.2761C35.9107 55.6441 30.7687 48.3351 26.1977 40.6721C24.5567 37.9191 22.9567 35.1521 21.3767 32.3661C21.4797 32.4221 21.6037 32.4351 21.7447 32.3891C24.4787 31.3841 26.5217 28.9511 26.8647 26.0571C36.9087 32.0641 47.1197 37.8951 57.6077 42.9191C57.5777 42.9851 57.5607 43.0621 57.5797 43.1481C58.2107 47.0811 55.1677 50.0301 51.2167 48.8421C51.0737 48.8011 50.9557 48.8461 50.8697 48.9341C50.6237 49.0531 50.4507 49.3571 50.6377 49.6621C51.6077 51.2361 51.6937 52.9501 50.8737 54.6211C49.9197 56.5701 47.0037 58.8521 45.0247 56.4471C44.6437 55.9881 43.9627 56.3451 44.1147 56.9201ZM40.3267 38.6211C40.5997 38.7621 40.8697 38.3621 40.6217 38.1671C40.1947 37.8471 39.6977 37.6021 39.2397 37.3301C38.7327 37.0331 38.2377 36.7301 37.7217 36.4631C37.5397 36.3671 37.3467 36.6441 37.5197 36.7701C37.9897 37.1161 38.4797 37.4261 38.9647 37.7471C39.4137 38.0431 39.8487 38.3861 40.3267 38.6211ZM41.3427 37.4411C41.5797 37.5671 41.7967 37.2241 41.5957 37.0481C39.5407 35.2891 37.0277 33.9091 34.7737 32.4211C34.5837 32.2971 34.3537 32.5541 34.5397 32.6901C36.7487 34.2741 38.9527 36.1441 41.3427 37.4411Z" fill="#E3C8A5"/>
<path d="M40.6217 38.1672C40.8697 38.3622 40.5997 38.7622 40.3267 38.6212C39.8487 38.3862 39.4137 38.0432 38.9657 37.7482C38.4807 37.4262 37.9907 37.1172 37.5207 36.7712C37.3477 36.6452 37.5407 36.3682 37.7227 36.4642C38.2387 36.7312 38.7337 37.0342 39.2407 37.3312C39.6977 37.6022 40.1947 37.8472 40.6217 38.1672Z" fill="#222221"/>
<path d="M41.5957 37.0483C41.7957 37.2243 41.5787 37.5673 41.3427 37.4413C38.9527 36.1443 36.7497 34.2753 34.5397 32.6913C34.3547 32.5553 34.5837 32.2983 34.7737 32.4223C37.0277 33.9093 39.5407 35.2883 41.5957 37.0483Z" fill="#222221"/>
<path d="M21.4156 31.4782C21.2066 31.5592 21.1157 31.7292 21.1127 31.9042C18.5097 27.3042 15.9727 22.6642 13.5247 17.9822C17.7377 20.5452 21.9756 23.1292 26.2406 25.6822C25.7336 28.3392 23.9926 30.5502 21.4156 31.4782Z" fill="#3E3E3D"/>
<path d="M230.657 205.556C229.493 200.104 223.148 196.3 218.846 193.477C218.838 193.471 218.829 193.472 218.821 193.467C219.13 192.123 219.173 190.782 218.716 189.528C217.811 187.044 215.509 185.803 213.016 186.565C212.942 186.588 212.89 186.628 212.832 186.665C212.546 184.175 210.681 181.074 207.863 182.039C207.739 182.081 207.653 182.15 207.583 182.228C207.577 182.227 207.571 182.223 207.565 182.222C207.826 180.968 206.839 179.446 205.755 178.966C204.771 178.53 203.534 178.72 202.7 179.389C178.764 156.335 154.827 133.28 130.891 110.226C119.284 99.0471 107.678 87.8681 96.0706 76.6891C90.2256 71.0591 84.3826 65.4271 78.5346 59.8011C72.6356 54.1251 66.9166 47.9611 60.6186 42.7091C60.7366 42.3341 60.6436 41.9071 60.1956 41.6611L12.8566 15.6511C12.0116 15.1871 11.0916 16.1141 11.5496 16.9581C20.1926 32.8551 28.8056 49.1431 39.0446 64.0901C39.0176 64.2361 39.0446 64.3911 39.1156 64.5211C38.8216 64.7691 38.6976 65.2191 39.0516 65.5751C62.0136 88.7061 86.0076 110.82 109.712 133.182L181.39 200.8C181.6 200.999 181.835 201.069 182.061 201.06C181.462 202.307 181.598 203.846 182.466 204.997C183.265 206.057 184.792 206.777 186.154 206.58C184.775 209.053 186.936 213.003 190.134 212.007C190.247 211.972 190.332 211.913 190.403 211.847C190.947 211.683 191.489 211.509 192.028 211.33C190.502 212.267 190.662 214.856 191.547 216.162C192.499 217.566 194.661 218.359 196.254 217.63C196.265 217.651 196.269 217.671 196.285 217.692C199.156 221.439 204.799 227.796 209.888 228.239C214.972 228.681 221.077 222.677 224.421 219.386C227.851 216.008 231.75 210.678 230.657 205.556ZM76.5566 60.5471C82.6066 66.3821 88.6626 72.2101 94.7166 78.0411C95.6496 78.9391 96.5826 79.8381 97.5156 80.7371C96.8926 80.1901 96.2587 79.6561 95.6367 79.1161C94.7217 78.3211 93.8256 77.4521 92.8146 76.7821C92.4436 76.5361 92.1046 77.0621 92.3646 77.3661C93.1756 78.3121 94.1896 79.1191 95.1146 79.9521C96.0476 80.7921 96.9536 81.6881 97.9466 82.4561C98.3766 82.7891 98.9466 82.3451 98.7406 81.9181C109.006 91.8051 119.271 101.692 129.537 111.579C153.54 134.698 177.543 157.816 201.546 180.935C200.688 182.529 199.739 184.187 198.71 185.833C175.073 162.461 150.796 139.696 126.542 116.968C102.596 94.5291 78.9336 71.3461 53.7106 50.3311C56.6766 49.3211 58.7516 46.3801 58.8216 43.2161C64.2456 49.3711 70.6546 54.8551 76.5566 60.5471ZM197.675 187.429C195.77 190.277 193.59 193.008 191.061 195.191C191.022 195.122 190.988 195.052 190.922 194.987C167.186 171.819 143.324 148.751 119.184 126.003C95.1776 103.382 71.4426 80.3431 46.7526 58.4721C50.2996 57.9081 53.0156 54.9951 52.9456 51.3951C76.3406 74.3651 101.261 95.9001 125.189 118.32C149.543 141.139 173.48 164.383 197.641 187.403C197.652 187.413 197.664 187.419 197.675 187.429ZM14.8086 18.9001L25.8086 24.9451C25.6056 27.5501 23.9806 29.8151 21.8206 31.2271C19.4476 27.1381 17.0976 23.0371 14.8086 18.9001ZM22.3696 32.1711C25.1136 31.1401 26.8766 28.6761 27.3686 25.8031L57.2556 42.2271C57.1946 42.3411 57.1546 42.4711 57.1656 42.6361C57.3746 45.7651 55.3716 48.3671 52.5306 49.3711C52.4556 49.3271 52.3806 49.3001 52.3036 49.2901C51.7966 49.0611 51.0536 49.3221 51.1156 49.9991C51.4626 53.8121 49.4046 56.8791 45.3206 56.8671C44.8606 56.8661 44.4616 57.2601 44.4646 57.7231C44.4826 60.5291 42.8156 62.5551 40.3216 63.4111C34.5826 52.8661 28.4096 42.5561 22.3696 32.1711ZM182.737 199.449C135.235 154.641 87.8076 109.757 40.4086 64.8431C40.4786 64.7961 40.5386 64.7381 40.5886 64.6711C43.3506 64.1431 45.3526 62.0111 45.9626 59.3221C69.3256 82.5821 93.8436 104.74 117.835 127.353C141.979 150.109 165.677 173.329 189.721 196.188C189.74 196.206 189.761 196.209 189.78 196.225C187.695 197.796 185.4 198.994 182.853 199.584C182.82 199.538 182.784 199.492 182.737 199.449ZM183.729 204.14C182.927 203.168 183.071 201.812 183.62 200.759C188.254 200.435 191.119 197.695 194.362 194.308C198.056 190.449 201.24 185.986 203.471 181.125C203.622 180.796 203.569 180.485 203.413 180.243C203.984 179.928 204.624 179.81 205.283 180.174C206.287 180.727 206.148 181.643 206.203 182.595C206.222 182.923 206.449 183.118 206.705 183.153C206.887 193.126 195.991 203.276 186.577 204.993C185.494 205.028 184.509 205.085 183.729 204.14ZM190.205 210.761C190.131 210.728 190.048 210.706 189.955 210.699C188.826 210.616 187.752 210.366 187.249 209.218C186.772 208.13 187.217 206.976 187.969 206.144C188.053 206.051 188.089 205.945 188.097 205.84C197.982 204.738 208.403 192.895 208.201 183.238C209.3 183.024 210.268 183.764 210.758 184.7C211.237 185.615 211.238 186.623 211.563 187.576C211.644 187.813 211.821 187.951 212.018 188.009C211.054 193.135 207.678 198.186 204.34 202.098C200.619 206.46 195.415 208.678 190.205 210.761ZM196.155 216.256C194.871 216.418 193.654 216.49 192.785 215.325C191.884 214.116 192.43 213.045 192.708 211.769C192.769 211.489 192.557 211.245 192.302 211.236C197.491 209.484 202.383 206.964 205.872 202.594C209.098 198.554 212.813 193.303 213.358 188.003C213.376 187.999 213.391 188.004 213.41 187.998C220.385 185.882 216.695 195.033 216.095 196.345C215.669 197.276 215.2 198.194 214.731 199.104C213.335 201.813 211.811 204.437 209.961 206.863C206.466 211.446 202.05 214.729 196.586 216.379C196.478 216.285 196.333 216.233 196.155 216.256ZM222.77 218.702C220.317 221.017 216.434 224.827 213.109 225.88C206.831 227.869 201.461 221.089 197.141 217.414C205.887 215.648 211.679 208.163 215.657 200.536C216.484 198.95 217.621 197.027 218.348 195.041C221.965 197.388 226.82 200.329 228.553 204.374C230.817 209.655 226.431 215.246 222.77 218.702Z" fill="black"/>
<path d="M204.471 183.331C204.191 183.761 204.015 184.256 203.738 184.691C203.426 185.18 203.034 185.591 202.572 185.939C202.294 186.148 202.548 186.621 202.852 186.419C203.833 185.769 204.942 184.729 205.101 183.502C205.147 183.143 204.635 183.079 204.471 183.331Z" fill="black"/>
<path d="M200.009 208.397C198.988 209.488 198.002 210.098 196.482 210.193C196.137 210.215 196.012 210.764 196.395 210.834C197.967 211.124 199.904 210.359 200.686 208.919C200.915 208.501 200.355 208.027 200.009 208.397Z" fill="black"/>
<path d="M200.726 209.561C200.051 209.955 199.481 210.503 198.794 210.891C198.045 211.314 197.246 211.578 196.447 211.881C196.172 211.985 196.177 212.477 196.523 212.441C198.087 212.28 200.198 211.43 201.185 210.156C201.432 209.838 201.128 209.326 200.726 209.561Z" fill="black"/>
<path d="M227.648 204.239C227.276 203.776 226.669 204.366 226.882 204.83C227.538 206.263 227.674 207.62 227.336 209.153C227.147 210.012 228.382 210.355 228.654 209.516C229.233 207.724 228.82 205.693 227.648 204.239Z" fill="black"/>
<path d="M226.516 205.949C226.306 205.378 225.51 205.603 225.611 206.198C225.935 208.102 225.293 209.643 223.931 210.952C223.456 211.408 224.086 212.273 224.65 211.883C226.484 210.616 227.281 208.033 226.516 205.949Z" fill="black"/>
<path d="M42.2716 36.4792C39.6946 34.9182 37.1146 33.3302 34.4446 31.9312C33.8776 31.6342 33.4336 32.4192 33.9486 32.7802C36.4186 34.5122 39.0146 36.0772 41.5856 37.6522C42.3336 38.1102 43.0196 36.9322 42.2716 36.4792Z" fill="black"/>
<path d="M41.6857 38.8421C39.9367 37.8101 38.0197 36.8001 36.1277 36.0581C35.6917 35.8871 35.5137 36.5221 35.8327 36.7581C37.4297 37.9391 39.2897 39.0121 41.0527 39.9251C41.7677 40.2941 42.3857 39.2551 41.6857 38.8421Z" fill="black"/>
<path d="M52.0546 66.6661C51.5896 66.1591 50.8766 65.8691 50.3336 65.4441C49.7756 65.0081 49.2776 64.5041 48.7896 63.9931C48.4846 63.6741 47.8986 64.1001 48.1646 64.4751C48.6166 65.1131 49.1436 65.6801 49.7346 66.1921C50.2686 66.6541 50.9206 67.2611 51.6276 67.4001C52.0546 67.4841 52.3616 67.0001 52.0546 66.6661Z" fill="black"/>
<path d="M52.6587 69.3911C51.4987 68.7491 50.6997 67.8571 49.9047 66.8191C49.6597 66.4981 49.0007 66.6621 49.1777 67.1261C49.7047 68.5101 50.8337 69.6281 52.0557 70.4221C52.6997 70.8401 53.3327 69.7641 52.6587 69.3911Z" fill="black"/>
<path d="M106.936 104.323C106.257 103.583 105.415 102.961 104.66 102.287C104.799 102.131 104.854 101.899 104.73 101.667C104.378 101.009 103.8 100.536 103.257 100.042C103.127 99.9241 102.999 99.8031 102.869 99.6821C103.17 99.8581 103.441 100.072 103.607 100.226C103.717 100.328 103.874 100.171 103.771 100.061C103.498 99.7681 103.205 99.5321 102.863 99.3251C102.633 99.1861 102.306 99.0851 102.034 98.9491C101.889 98.8361 101.739 98.7291 101.583 98.6331V98.6371C101.193 98.3911 100.617 98.8771 100.899 99.3171C101.058 99.5651 101.246 99.7941 101.442 100.016C101.372 100.132 101.36 100.276 101.468 100.421C102.137 101.32 102.94 102.134 103.728 102.928C104.512 103.718 105.321 104.595 106.259 105.201C106.809 105.558 107.352 104.777 106.936 104.323Z" fill="black"/>
<path d="M96.9257 83.0351C96.5477 82.4581 95.9577 82.0161 95.4497 81.5561C94.9037 81.0621 94.3707 80.5421 93.7917 80.0871C93.3767 79.7611 92.8377 80.2661 93.2027 80.6761C93.6917 81.2261 94.2417 81.7251 94.7667 82.2391C95.2537 82.7161 95.7347 83.2901 96.3307 83.6301C96.6937 83.8391 97.1707 83.4111 96.9257 83.0351Z" fill="black"/>
<path d="M192.915 187.376C191.705 186.127 190.363 184.971 189.079 183.798C188.789 183.533 188.386 183.937 188.649 184.228C189.816 185.518 190.966 186.866 192.209 188.082C192.669 188.531 193.363 187.838 192.915 187.376Z" fill="black"/>
<path d="M194.47 185.525C193.85 184.752 192.972 184.124 192.228 183.468C191.467 182.797 190.723 182.098 189.926 181.47C189.525 181.154 188.99 181.65 189.353 182.043C190.077 182.828 190.873 183.552 191.64 184.295C192.349 184.982 193.03 185.776 193.848 186.332C194.367 186.687 194.807 185.946 194.47 185.525Z" fill="black"/>
</svg>
